<?xml version="1.0" standalone="no"?><!DOCTYPE svg PUBLIC "-//W3C//DTD SVG 1.1//EN" "http://www.w3.org/Graphics/SVG/1.1/DTD/svg11.dtd"><svg t="1557844171826" class="icon" style="" viewBox="0 0 1025 1024" version="1.1" xmlns="http://www.w3.org/2000/svg" p-id="7817" xmlns:xlink="http://www.w3.org/1999/xlink" width="128.125" height="128"><defs><style type="text/css"></style></defs><path d="M512.001297 0C229.229381 0 0 229.229381 0 512.001297s229.229381 511.998703 512.001297 511.998703c282.771916 0 512.001297-229.229381 512.001297-511.998703S794.773213 0 512.001297 0zM512.001297 1006.37555c-273.037617 0-494.376847-221.33923-494.376847-494.376847C17.621856 238.96368 238.96368 17.621856 512.001297 17.621856s494.379441 221.33923 494.379441 494.376847C1006.380737 785.038914 785.038914 1006.37555 512.001297 1006.37555z" p-id="7818" fill="#ffffff"></path><path d="M580.180295 836.218553c-20.223376 0-36.675456-16.45208-36.675456-36.67805l0-83.619521-66.713536 0 0 83.619521c0 20.225969-16.45208 36.67805-36.675456 36.67805s-36.675456-16.45208-36.675456-36.67805l0-83.619521-17.606294 0c-29.122491 0-52.813694-23.693797-52.813694-52.813694L333.020403 387.302153l359.424656 0 0 275.805135c0 29.122491-23.693797 52.813694-52.813694 52.813694l-22.775614 0 0 83.619521C616.855751 819.766472 600.403671 836.218553 580.180295 836.218553zM459.187603 698.317282l101.920937 0 0 101.223221c0 10.517608 8.556742 19.07435 19.071756 19.07435 10.517608 0 19.07435-8.556742 19.07435-19.07435l0-101.223221 40.379314 0c19.414129 0 35.209994-15.795865 35.209994-35.209994l0-258.198841-324.217256 0 0 258.198841c0 19.414129 15.795865 35.209994 35.209994 35.209994l35.209994 0 0 101.223221c0 10.517608 8.556742 19.07435 19.071756 19.07435s19.071756-8.556742 19.071756-19.07435L459.190196 698.317282z" p-id="7819" fill="#ffffff"></path><path d="M692.447653 376.299516 333.022997 376.299516l0-8.803147c0-99.093762 80.618566-179.712328 179.712328-179.712328s179.712328 80.618566 179.712328 179.712328L692.447653 376.299516zM350.862727 358.693222l323.745196 0c-4.588323-85.313232-75.438871-153.305481-161.872598-153.305481C426.299004 205.387741 355.448456 273.382584 350.862727 358.693222z" p-id="7820" fill="#ffffff"></path><path d="M283.14282 575.0836c-20.223376 0-36.675456-16.45208-36.675456-36.67805l0-112.962479c0-20.223376 16.45208-36.675456 36.675456-36.675456 20.223376 0 36.675456 16.45208 36.675456 36.675456l0 112.962479C319.818276 558.631519 303.366196 575.0836 283.14282 575.0836zM283.14282 406.373909c-10.515014 0-19.071756 8.556742-19.071756 19.071756l0 112.962479c0 10.517608 8.556742 19.07435 19.071756 19.07435s19.071756-8.556742 19.071756-19.07435l0-112.962479C302.214576 414.93065 293.657834 406.373909 283.14282 406.373909z" p-id="7821" fill="#ffffff"></path><path d="M740.859774 575.0836c-20.223376 0-36.67805-16.45208-36.67805-36.67805l0-112.962479c0-20.223376 16.454674-36.675456 36.67805-36.675456s36.67805 16.45208 36.67805 36.675456l0 112.962479C777.535229 558.631519 761.083149 575.0836 740.859774 575.0836zM740.859774 406.373909c-10.517608 0-19.07435 8.556742-19.07435 19.071756l0 112.962479c0 10.517608 8.556742 19.07435 19.07435 19.07435s19.071756-8.556742 19.071756-19.07435l0-112.962479C759.928936 414.93065 751.374788 406.373909 740.859774 406.373909z" p-id="7822" fill="#ffffff"></path></svg>